# xmcd
#
# Track frame offsets: 
#        150
#        17781
#        26893
#        43684
#        53652
#        73083
#        86050
#        102071
#        121187
#        138632
#        151038
#        165783
#
# Disc length: 2475 seconds
#
# Revision: 0
# Processed by: cddbd v1.5.2PL0 Copyright (c) Steve Scherf et al.
# Submitted via: ExactAudioCopy v0.99pb5
#
DISCID=9209a90c
DTITLE=Big Fat Snake - Midnight Hour
DYEAR=2013
DGENRE=Blues
TTITLE0=Green Onions
TTITLE1=Soul Man
TTITLE2=Every Negative
TTITLE3=Hard To Handle
TTITLE4=That's How Strong My Love Is
TTITLE5=Leah
TTITLE6=If You Talk In Your Sleep
TTITLE7=Let It Be Me
TTITLE8=Time To Say Goodbye
TTITLE9=A Little Less Conversation
TTITLE10=Viva Las Vegas
TTITLE11=From The Inside
EXTD=
EXTT0=
EXTT1=
EXTT2=
EXTT3=
EXTT4=
EXTT5=
EXTT6=
EXTT7=
EXTT8=
EXTT9=
EXTT10=
EXTT11=
PLAYORDER=
